<?xml version="1.0" encoding="utf-8"?>
<svg width="131" height="64" viewBox="0 0 131 64" fill="none" xmlns="http://www.w3.org/2000/svg">
<path d="M31.8159 16.805C32.2949 15.917 32.5686 15.0289 32.9791 14.1408L34.1423 11.4083C34.5528 10.5885 34.9633 9.70047 35.3054 8.8124L35.5791 8.26589C35.6475 7.92433 35.8528 7.65107 35.9212 7.37782C36.1949 6.763 36.4002 6.2165 36.6054 5.60168C36.8107 5.12349 37.0159 4.71361 37.2212 4.23541C37.3581 3.82554 37.5633 3.48397 37.7686 3.07409C37.9054 2.93747 38.0423 2.73253 38.1791 2.5959C38.5896 2.45927 38.9317 2.45927 39.2054 2.39096C39.8896 2.39096 40.5739 2.45927 41.1896 2.25433H41.4633C42.4897 2.25433 43.516 2.18602 44.6107 2.18602C45.2949 2.18602 45.9791 2.25433 46.5949 2.11771C47.2107 2.04939 47.8265 2.04939 48.4423 2.04939C48.716 2.04939 48.8528 2.04939 49.0581 2.11771C49.4002 2.18602 49.6739 2.18602 50.016 2.11771C50.0844 2.04939 50.2213 2.11771 50.3581 2.11771C50.5634 2.11771 50.7686 2.18602 50.9055 2.18602H52.4792C53.095 2.25433 53.7108 2.25433 54.395 2.25433C55.1476 2.39096 55.9687 2.32265 56.7897 2.52759C57.5424 2.52759 58.2266 2.73253 58.9792 2.93747C59.9371 3.14241 60.8266 3.48397 61.5792 4.1671C61.6476 4.23541 61.6476 4.23541 61.7845 4.23541C61.8529 4.30373 61.9897 4.30373 62.1266 4.30373C62.195 4.30373 62.2634 4.23541 62.3318 4.23541C62.6055 3.96216 62.8792 3.68891 62.8792 3.27903C62.674 2.73253 62.4003 2.25433 61.9213 1.77614C61.7161 1.70783 61.5108 1.5712 61.3055 1.50289C60.895 1.36626 60.5529 1.22964 60.0739 1.09301C58.9108 0.683131 57.7476 0.341564 56.4476 0.273251H56.1055C55.695 0.136625 55.2844 0.204939 54.8739 0.204939C54.3265 0.136626 53.8476 0.136624 53.3002 0.136624C52.7529 0.0683111 52.2739 0.136626 51.7265 0H46.5265C46.3897 0 46.2528 -1.04339e-06 46.1844 0.0683121C45.7055 0.136625 45.2949 0.136624 44.816 0.136624H42.1475C41.737 0.136624 41.2581 0.136626 40.7791 0.204939C40.0949 0.273252 39.4107 0.273251 38.7265 0.273251C38.316 0.273251 37.9738 0.273253 37.6317 0.341566C37.4949 0.409879 37.2896 0.409878 37.1528 0.409878C36.7423 0.409878 36.2633 0.47819 35.9212 0.47819C35.5107 0.614816 35.237 0.683131 34.9633 0.751444C34.0738 0.751444 33.1159 0.751445 32.2949 1.0247C31.8843 1.09301 31.4738 1.16132 31.0633 1.16132C30.9264 1.16132 30.7896 1.22964 30.7212 1.22964C30.5843 1.29795 30.4475 1.29795 30.3791 1.29795C30.1738 1.36626 29.9685 1.29795 29.8317 1.36626C29.6264 1.43458 29.4212 1.36626 29.2159 1.36626C28.5317 1.43458 27.9159 1.63952 27.2317 1.70783C26.7527 1.77614 26.2738 1.84445 25.8633 1.98108C25.658 2.04939 25.5212 2.11771 25.3843 2.11771C24.8369 2.11771 24.2896 2.39096 23.6738 2.32265C23.4685 2.32265 23.3317 2.39096 23.1264 2.39096L22.1685 2.52759C22.0317 2.5959 21.8948 2.66421 21.6896 2.80084C21.5527 2.80084 21.3475 2.80084 21.2106 2.86915C20.8001 3.00578 20.3211 3.07409 19.8422 3.1424C19.5685 3.27903 19.2264 3.41566 18.8159 3.41566L18.3369 3.55228C18.2001 3.6206 18.0632 3.68891 17.858 3.68891C17.379 3.75722 16.9685 3.89385 16.4895 4.03048C16.1474 4.09879 15.7369 4.30373 15.3264 4.30373C15.258 4.30373 15.0527 4.37204 14.9159 4.37204C14.5737 4.50867 14.2316 4.6453 13.8895 4.78192C13.0001 4.98686 12.179 5.26011 11.3579 5.53337C11.0158 5.66999 10.6737 5.80662 10.4 5.87493C9.57899 6.2165 8.75793 6.42144 7.93688 6.763C7.11582 7.10457 6.22634 7.37782 5.40529 7.7877C4.78949 8.06095 4.10528 8.3342 3.48949 8.60746C3.07896 8.88071 2.60001 9.01734 2.12106 9.29059C1.50527 9.63216 0.889477 10.042 0.136843 10.247C0.0684212 10.247 0.0684213 10.3153 0.0684213 10.3153L0 10.3836C0.136843 10.7935 0.410528 11.135 0.752635 11.4766C1.02632 11.7499 1.23158 12.0231 1.64211 12.2281H2.05264L2.60001 11.9548C3.14738 11.6816 3.69475 11.4083 4.31054 11.4083C4.37897 11.4083 4.44739 11.4083 4.51581 11.34C4.58423 11.2717 4.72107 11.2717 4.78949 11.2034C4.85792 10.9984 4.99476 10.8618 5.06318 10.7252C5.33686 10.4519 5.54213 10.3153 5.81581 10.1787C6.29476 9.90541 6.84213 9.76878 7.38951 9.56384C8.48425 9.01734 9.71583 8.53915 10.879 8.12927C12.5211 7.51445 14.2316 6.96794 16.0106 6.48975C16.7632 6.2165 17.5843 6.01156 18.4053 5.80662L20.1159 5.39674C20.8685 5.26011 21.4843 5.05517 22.1685 4.91855C22.6475 4.85023 23.1264 4.78192 23.5369 4.64529C23.7422 4.57698 23.9475 4.50867 24.0843 4.50867C24.9054 4.44035 25.7264 4.1671 26.4791 4.09879C27.7106 3.82554 28.9422 3.68891 30.1738 3.48397H30.2422C30.7896 3.48397 31.337 3.27903 31.9528 3.21072C32.158 3.1424 32.2949 3.14241 32.5001 3.07409C32.3633 3.48397 32.2265 3.89385 32.0896 4.30373C31.8159 4.98686 31.6107 5.7383 31.2686 6.42144C31.2001 6.62638 31.1317 6.83131 31.0633 7.10457C30.9264 7.71939 30.6528 8.33421 30.3791 8.88071C30.1738 9.3589 29.9001 9.90541 29.7633 10.3836C29.4212 11.2717 29.0791 12.1597 28.6685 12.9795C28.6001 13.1161 28.5317 13.3211 28.4633 13.4577C28.0528 14.3458 27.7106 15.2338 27.3685 16.1902V16.4635C27.2317 16.6684 27.1633 17.01 27.0264 17.2832C26.958 17.5565 26.8212 17.8297 26.6843 18.103C26.4791 18.5129 26.2738 19.0594 26.137 19.5376C26.0685 19.7425 25.9317 19.9474 25.8633 20.1524L25.1106 21.9968C25.0422 22.2018 24.9738 22.5433 24.8369 22.7483C24.7001 23.1582 24.4948 23.568 24.358 24.0462C24.2212 24.5244 24.1527 24.9343 23.9475 25.3442C23.8106 25.6174 23.7422 25.8907 23.6738 26.1639C23.5369 26.7104 23.3317 27.2569 23.1948 27.8718C23.1264 28.0767 23.1264 28.0084 23.058 28.35C22.9212 28.9648 22.7159 29.5113 22.6475 30.1261C22.4422 30.9459 22.2369 31.7656 22.1001 32.5171C22.1001 32.6537 22.1001 32.7903 22.0317 32.9269C22.0317 33.0636 22.0317 33.2685 21.9633 33.4051C21.8264 34.0883 21.6896 34.7714 21.5527 35.4545C21.4843 35.6595 21.4159 35.8644 21.4159 36.001C21.4159 36.3426 21.4159 36.6159 21.3475 36.9574C21.279 37.094 21.279 37.1624 21.2106 37.3673C21.1422 38.9385 20.3211 41.4661 21.6896 42.4908C22.2369 42.9007 25.2475 43.4472 25.8633 42.8324C26.4791 42.1492 25.5212 39.8266 25.5896 38.9385C25.5896 36.5475 26.2738 34.0883 26.6843 31.7656C26.8212 31.0825 26.958 30.3994 27.0949 29.7162C27.1633 29.5796 27.1633 29.443 27.2317 29.3063C27.2317 29.1014 27.3001 28.8965 27.3685 28.6915C27.6422 27.8035 27.5738 27.9401 27.8475 26.8471L28.3264 25.4125L29.2159 22.68C29.2843 22.3384 29.4896 21.9968 29.6264 21.7236C29.6949 21.5186 29.7633 21.3137 29.9001 21.1088C30.2422 20.289 30.5843 19.4692 30.858 18.5812C31.2686 18.103 31.6107 17.4882 31.8159 16.805Z" fill="white"/>
<path d="M58.4309 30.7407H58.4993C58.6361 30.6724 58.7045 30.6724 58.8414 30.6041H58.9098C58.9782 30.6041 59.1151 30.5358 59.1835 30.5358C59.4572 30.3991 59.7309 30.2625 59.9361 30.1259C60.0045 30.1259 60.0045 30.0576 60.073 30.0576C60.073 30.0576 60.1414 30.0576 60.1414 29.9893C60.4151 29.7843 60.6888 29.5111 60.894 29.3061C61.0309 29.1695 61.1677 29.1012 61.3045 28.9646C61.4414 28.8279 61.5782 28.7596 61.7151 28.623C61.9888 28.4181 62.194 28.2131 62.4677 27.9399C62.5361 27.8716 62.6046 27.8032 62.673 27.7349C62.9467 27.4617 63.1519 27.1884 63.4256 26.9152C63.5625 26.7785 63.6309 26.6419 63.7677 26.5053C63.9046 26.232 64.0414 26.0271 64.2467 25.8222C64.3151 25.7538 64.3151 25.6855 64.3835 25.6855C64.4519 25.5489 64.5888 25.4806 64.6572 25.344C64.7256 25.2757 64.7256 25.2073 64.794 25.139C64.9309 24.8658 64.9993 24.6608 65.1361 24.3876C65.4098 23.8411 65.7519 23.3629 66.0256 22.8164C66.0256 22.7481 66.094 22.6114 66.1625 22.5431C66.1625 22.4748 66.2309 22.4065 66.2309 22.4065C66.2309 22.4065 66.2309 22.4065 66.2309 22.3382C66.2993 22.2699 66.2993 22.2016 66.2993 22.1333C66.3677 21.9283 66.3677 21.7234 66.3677 21.5184C66.2993 21.2452 66.0256 21.0402 65.6835 21.0402C65.4783 21.0402 65.273 21.1086 65.0677 21.1769C64.9993 21.2452 64.8625 21.2452 64.794 21.3135C64.7256 21.3818 64.6572 21.3818 64.6572 21.4501C64.6572 21.4501 64.6572 21.4501 64.5888 21.5184C64.5888 21.5184 64.5888 21.5184 64.5888 21.5867C64.3835 21.7234 64.2467 21.9283 64.1782 22.1333L63.973 22.2699L63.9046 22.4065C63.9046 22.4065 63.9046 22.4748 63.8361 22.4748C63.7677 22.6114 63.6993 22.8164 63.5625 23.0213C63.5625 23.0896 63.494 23.0896 63.494 23.1579L62.7414 24.3876C62.6046 24.5925 62.4677 24.7292 62.3993 24.9341C62.3309 25.0707 62.194 25.2073 62.0572 25.344C61.9888 25.4806 61.8519 25.6172 61.7835 25.7538C61.7151 25.8905 61.6467 25.9588 61.5098 26.0271C61.2361 26.232 61.0993 26.437 60.894 26.6419C60.894 26.6419 60.894 26.6419 60.8256 26.7102C60.3467 27.2567 59.7309 27.5983 59.1151 28.0082C58.9098 28.0765 58.7045 28.1448 58.4993 28.2814L58.294 28.3497L58.0887 28.4181C58.0203 28.4181 57.9519 28.4181 57.9519 28.4181C57.8151 28.4181 57.7466 28.4181 57.6098 28.3497C57.5414 28.3497 57.473 28.2814 57.473 28.2814C57.4045 28.2814 57.4045 28.2131 57.2677 28.2131C57.1993 28.0765 57.1308 28.0082 57.0624 27.8716L56.994 27.8032C56.9256 27.6666 56.8572 27.5983 56.7887 27.53C56.7203 27.325 56.7203 27.1201 56.7203 26.9835C56.7203 26.5053 56.7203 26.0954 56.7887 25.6172C56.8572 25.344 56.9256 25.139 56.994 24.8658C56.994 24.7292 57.0624 24.5925 57.1308 24.4559C57.1308 24.3876 57.1308 24.3876 57.1993 24.3193C57.1993 24.251 57.2677 24.1143 57.2677 24.046C57.3361 23.8411 57.473 23.6361 57.5414 23.4312C57.6782 23.2263 57.8151 22.953 57.8835 22.6114V22.5431V22.4748C58.0203 21.7234 57.9519 21.1769 57.1308 20.9719C56.5835 20.8353 56.1729 20.6987 55.5572 20.8353C54.1203 21.0402 53.5729 23.0213 52.9571 24.1143C51.9308 25.8905 50.9045 27.1201 49.6045 28.6913C49.5361 28.8279 48.8519 29.2378 48.3045 29.716C48.0992 29.1012 47.894 28.4181 47.9624 27.8716C48.0308 27.3934 48.0992 26.8469 48.1677 26.3687C48.4413 25.0024 48.8519 23.4995 49.5361 22.3382C50.015 21.5184 50.8361 20.0839 50.4256 19.4007C50.015 18.7176 48.9887 19.5373 48.715 19.9472C48.3729 20.4254 48.1676 21.0402 47.9624 21.5867C47.894 21.7234 47.7571 21.86 47.6887 21.9966C46.9361 23.4995 45.2255 25.4806 44.2676 26.8469C43.7887 27.53 42.1466 30.1942 41.1202 29.5794L41.1887 29.0329C41.3939 28.2131 42.0097 27.2567 42.215 26.8469C42.7624 25.6855 42.8308 24.3193 42.215 23.2263C42.1466 23.0213 42.0097 22.7481 41.9413 22.5431L41.8729 22.4748C41.736 22.3382 41.6676 22.2016 41.5308 22.1333C41.3939 21.9283 41.1887 21.7917 41.1202 21.6551L41.0518 21.5867V21.4501C40.6413 21.1769 40.2992 20.9719 39.8887 20.9036H39.8202H39.7518C39.4781 20.767 39.136 20.6304 38.7939 20.4937C38.6571 20.2205 38.5887 19.9472 38.5887 19.674V19.5373C38.5887 19.4007 38.6571 19.2641 38.6571 19.1275C38.7255 18.8542 38.8623 18.6493 38.9308 18.4443C38.9992 18.1711 38.8623 17.9661 38.7939 17.8295C38.7255 17.7612 38.7255 17.6929 38.5887 17.6246C38.3834 17.3513 38.1781 17.2147 37.9044 17.0781C37.6308 17.0098 37.2887 17.0098 36.9465 17.1464C36.6729 17.3513 36.4676 17.5563 36.2623 17.8978C36.2623 18.1711 36.1939 18.4443 36.1939 18.7859C36.1939 19.1958 36.2623 19.6057 36.3308 20.0155C36.3308 20.0839 36.3992 20.0839 36.3992 20.1522C36.2623 20.562 36.0571 20.9036 35.8518 21.3135C35.7834 21.3818 35.7834 21.4501 35.7834 21.5184V21.5867C35.715 21.6551 30.4465 30.0576 30.3097 30.1942C30.1044 30.809 30.4465 31.2872 31.0623 31.2872C31.4728 31.2872 35.4413 25.6172 37.015 23.1579C37.4939 23.4995 37.7676 23.7045 38.1781 23.9094C38.2466 24.7975 37.6308 25.6855 37.2887 26.5736C36.7413 28.0765 36.3308 29.5111 37.3571 30.809C37.836 31.3555 38.5202 31.8337 39.2729 32.107C39.4097 32.1753 39.5466 32.3119 39.6834 32.3802C41.3255 33.2 42.5571 31.9703 43.6518 30.3308C44.4729 29.1012 45.3624 27.8716 46.2519 26.7102C46.115 28.0765 46.115 29.4428 46.7308 30.6724C47.1413 31.5605 47.894 32.3119 48.7834 32.7218C48.8519 32.7901 48.9887 32.7901 49.0571 32.8584C49.0571 32.8584 49.8098 33.2683 50.9045 33.0634C52.0677 32.8584 52.6835 31.902 53.2993 31.014C53.3677 30.8773 53.5045 30.7407 53.5729 30.6724C53.7098 30.4675 53.8466 30.2625 53.9835 29.9893C54.2572 29.5794 54.4624 29.1695 54.8729 28.6913C54.8729 28.6913 54.9414 28.623 55.0098 28.5547V28.623C55.1466 28.8279 55.3519 29.1695 55.5572 29.3061C55.6256 29.3061 55.6256 29.3744 55.6256 29.3744C55.694 29.3744 55.694 29.4428 55.694 29.4428C55.7624 29.5111 55.8308 29.6477 55.9677 29.716L56.994 30.4675C57.4045 30.4675 57.8835 30.7407 58.4309 30.7407Z" fill="white"/>
<path d="M129.865 42.15C129.728 42.0134 129.66 41.8085 129.592 41.6035L129.455 41.3986C128.976 40.8521 128.428 40.3739 127.744 40.0323C127.06 39.6908 126.307 39.4858 125.555 39.3492C125.486 39.3492 125.486 39.3492 125.418 39.3492C124.87 39.2809 124.323 39.1442 123.844 39.1442C123.707 39.1442 123.57 39.1442 123.434 39.0759C123.16 39.0076 123.023 39.0076 122.749 39.0076H119.534C119.465 39.0076 119.397 39.0076 119.328 39.0759C118.918 39.2126 118.507 39.2126 118.165 39.2126C117.891 39.2126 117.618 39.2809 117.344 39.2809C117.276 39.2809 117.276 39.2809 117.207 39.2809C117.002 39.3492 116.728 39.3492 116.523 39.3492L115.565 39.4175C115.428 39.4858 115.223 39.4858 115.086 39.4858C115.155 39.2126 115.291 38.9393 115.36 38.666C116.249 36.0702 117.002 33.4059 117.618 30.7417C117.891 29.6487 117.891 28.4874 118.234 27.3261C118.37 26.9162 118.576 26.438 118.644 26.0281C118.781 25.2767 118.439 24.8668 118.028 24.252C117.96 24.1837 117.686 24.1153 117.276 24.1153C117.139 23.9104 116.797 23.5688 116.797 23.3639C116.66 23.159 116.523 22.954 116.455 22.6808C116.386 22.6808 116.386 22.6125 116.386 22.6125C116.249 22.5441 116.113 22.4758 116.044 22.4075C115.839 21.861 115.497 21.3828 115.086 21.0413C114.607 20.6997 114.128 20.2898 113.513 20.1532C113.239 20.1532 112.965 20.1532 112.691 20.2215H112.418C111.87 20.4264 111.255 20.6314 110.776 20.9729C108.997 22.3392 107.697 23.9787 106.739 25.8915C106.67 26.0281 106.602 26.0964 106.534 26.2331C106.465 26.3697 106.328 26.5063 106.191 26.6429C106.055 26.7796 105.986 26.9162 105.918 27.0528C105.849 27.1894 105.781 27.2578 105.644 27.3261C105.37 27.531 105.234 27.7359 105.028 27.9409C105.028 27.9409 105.028 27.9409 104.96 28.0092C104.481 28.5557 103.865 28.8973 103.249 29.3071C103.044 29.3755 102.839 29.4438 102.634 29.5804L102.428 29.6487L102.223 29.717C102.155 29.717 102.086 29.717 102.086 29.717C101.949 29.717 101.881 29.717 101.744 29.6487C101.676 29.6487 101.607 29.5804 101.607 29.5804C101.539 29.5804 101.539 29.5121 101.402 29.5121C101.333 29.3755 101.265 29.3071 101.197 29.1705L101.128 29.1022C101.06 28.9656 100.991 28.8973 100.923 28.829C100.855 28.624 100.855 28.4191 100.855 28.2825C100.855 27.8043 100.855 27.3944 100.923 26.9162C100.991 26.6429 101.06 26.438 101.128 26.1647C101.128 26.0281 101.197 25.8915 101.265 25.7549C101.265 25.6865 101.265 25.6865 101.334 25.6182C101.334 25.5499 101.402 25.4133 101.402 25.345C101.47 25.14 101.607 24.9351 101.676 24.7302C101.881 24.4569 102.018 24.1153 102.086 23.7055C102.018 23.5005 102.086 23.2956 101.949 23.0223C101.881 22.8857 101.812 22.8174 101.676 22.7491C101.676 22.2709 101.47 21.9293 100.855 21.861C100.307 21.7244 99.8967 21.5878 99.2809 21.7244C97.844 21.9293 97.6387 24.3203 97.0914 25.4133C96.0651 27.1894 95.1072 28.9656 93.7387 30.5368C93.6019 30.7417 92.9861 31.4932 92.7808 31.6981C92.7808 31.6981 92.7808 31.6298 92.7124 31.6298C92.4387 30.9467 92.0966 29.922 92.165 29.1705C92.2335 28.9656 92.2335 28.7606 92.2335 28.624C92.3019 28.2825 92.3019 28.0092 92.3703 27.6676C92.644 26.3014 93.0545 24.7985 93.7387 23.6372C94.2177 22.8174 95.0387 21.3828 94.6282 20.6997C94.2177 20.0166 93.1914 20.8363 92.9177 21.2462C92.5756 21.7927 92.3703 22.4075 92.0966 23.0223C91.4808 24.5935 90.865 25.4816 90.5229 27.1211C90.3861 27.1211 90.2492 27.1211 90.1808 27.1894C89.8387 27.3261 89.4282 27.3261 89.0861 27.3261H89.0177C88.9492 27.3261 88.8808 27.3261 88.8124 27.3944C88.744 27.3944 88.6071 27.3944 88.5387 27.4627C88.3334 27.531 88.1282 27.531 87.9229 27.531C87.6492 27.531 87.3071 27.5993 87.0334 27.6676H86.6913H86.6229C86.6229 27.6676 86.0071 27.8726 85.0492 28.1458C86.7598 22.7491 88.6756 17.3523 90.7966 12.1605C91.5492 10.3161 92.3019 8.40331 93.0545 6.55886C93.3966 5.60247 94.6966 3.48477 93.8756 2.46007C93.6703 2.25513 93.2598 1.98187 92.9861 1.84525C92.4387 1.572 90.9335 1.29874 90.3861 1.50368C90.3177 1.50368 90.2492 1.50368 90.1124 1.50368C90.1124 1.77693 90.1124 2.05019 90.044 2.32344C89.9756 2.86995 89.7703 3.48477 89.6335 4.03127C89.2913 5.05597 88.8808 6.01235 88.5387 6.96874C87.7861 9.01813 87.1703 11.1358 86.4177 13.2536C84.844 17.8305 83.065 22.3392 81.765 26.9845C81.5597 27.7359 81.3545 28.4874 81.2176 29.2388C78.686 29.922 75.8808 30.6051 74.1702 30.81C74.0334 30.81 73.4176 31.015 72.7334 31.2199C73.486 27.8043 74.4439 24.5935 75.4018 21.7927C76.7702 17.9672 78.2071 14.1416 79.8492 10.3844C80.6018 8.53994 81.286 6.55886 82.3124 4.78272C83.1334 3.41645 83.1334 2.46007 81.2176 2.1185C80.5334 1.98188 79.7124 1.98187 79.0281 2.18681C77.865 2.59669 77.3176 2.52838 77.0439 3.34814C75.4018 7.99343 73.486 12.8437 71.9807 17.284C70.4755 21.6561 69.6544 25.2767 68.9702 29.7853C68.9018 30.4685 68.6965 31.5615 68.5597 32.5179C68.2176 32.6545 67.8755 32.7228 67.4649 32.8594C66.9176 33.0644 66.3702 33.201 65.8912 33.4059C65.6176 33.4743 65.4123 33.5426 65.1386 33.6109C64.6597 33.7475 64.2491 33.8841 63.8386 34.0208L63.0175 34.294C62.8807 34.294 62.7439 34.3623 62.6754 34.3623C62.3333 34.4989 61.9228 34.6356 61.5807 34.8405C61.1702 34.9771 60.7596 35.1821 60.4175 35.3187C60.2807 35.387 60.1438 35.4553 60.007 35.4553C59.3912 35.6603 58.7754 35.9335 58.0912 36.0701C57.8175 36.1385 57.5438 36.2068 57.2702 36.2751C57.1333 36.4117 56.8596 36.6167 56.7228 36.8216C56.7228 36.8899 56.5859 37.0948 56.5859 37.2998C56.6544 37.4364 56.7228 37.5047 56.7912 37.573C56.8596 37.6414 56.928 37.778 56.9965 37.8463C57.2702 38.3245 57.6123 38.5977 58.0912 38.7344C58.1596 38.7344 58.2281 38.7344 58.2281 38.7344C58.4333 38.7344 58.6386 38.6661 58.8438 38.5977C58.9123 38.5977 58.9807 38.5294 59.0491 38.5294H59.1175C59.4596 38.2562 59.8702 38.1195 60.2807 37.9146C60.4175 37.8463 60.5544 37.778 60.6912 37.7097C61.9228 37.1632 63.086 36.685 64.1807 36.2751L64.8649 36.0018C66.0281 35.592 67.1228 35.1821 68.286 34.8405C67.8755 37.9146 67.6702 40.9887 67.8755 44.0628C68.0123 45.7023 68.8334 46.0439 69.586 46.2488C70.4071 46.4538 71.1597 46.3854 71.1597 43.9262C71.1597 40.7838 71.5702 37.2315 72.2544 33.6792L73.7597 33.2693C74.6492 33.0644 75.5387 32.8594 76.3597 32.7228C77.7281 32.4496 79.165 32.108 80.6018 31.7664C80.0545 34.294 79.5071 36.8899 78.8913 39.4175C78.4808 41.262 78.0018 43.1064 77.6597 44.9509C77.4545 45.9756 77.3176 47.0003 77.1808 47.9566C77.1123 48.7081 76.9071 49.7328 77.4545 50.3476C77.6597 50.6209 78.0702 50.8941 78.3439 51.0307C78.4124 51.0991 78.4124 51.0991 78.5492 51.1674C79.165 51.3723 79.0281 51.2357 79.3018 50.6892C79.8492 49.7328 79.9176 48.1616 80.0545 47.1369C80.7387 43.1064 81.765 39.1442 82.8597 35.1821C83.2703 33.6792 83.6808 32.108 84.1597 30.6051C84.2282 30.6051 84.2966 30.5368 84.365 30.5368C86.2124 29.8537 88.4703 29.0339 90.1124 29.5804C90.1124 30.4002 90.3177 31.2882 90.6598 32.0397C91.0703 32.9277 91.8229 33.6792 92.7124 34.0891C92.7808 34.1574 92.9177 34.1574 92.9861 34.2257C92.9861 34.2257 93.7387 34.6356 94.8335 34.4306C95.9966 34.2257 96.6124 33.2693 97.2282 32.3812C97.2966 32.2446 97.4335 32.108 97.5019 32.0397C97.6388 31.8347 97.7756 31.6298 97.9124 31.3565C98.1861 30.9467 98.3914 30.5368 98.8019 30.0586C98.8019 30.0586 98.8703 29.9903 98.9388 29.922V29.9903C99.0756 30.1952 99.2809 30.5368 99.4861 30.6734C99.5545 30.6734 99.5546 30.7417 99.5546 30.7417C99.623 30.7417 99.623 30.81 99.623 30.81C99.6914 30.8783 99.7598 31.015 99.8967 31.0833L100.923 31.8347C101.402 32.0397 101.881 32.2446 102.428 32.2446H102.497C102.634 32.1763 102.702 32.1763 102.839 32.108H102.907C102.976 32.108 103.112 32.0397 103.181 32.0397C103.455 31.903 103.728 31.7664 103.934 31.6298C104.002 31.6298 104.002 31.5615 104.07 31.5615C104.07 31.5615 104.139 31.5615 104.139 31.4932C104.412 31.2882 104.686 31.015 104.891 30.81C104.891 30.81 104.96 30.81 104.96 30.7417C104.96 33.4059 109.339 36.2068 111.734 33.8158C112.281 33.201 112.76 32.5862 113.17 32.0397C112.897 33.0644 112.691 34.0891 112.418 35.0455C111.87 36.8899 111.323 38.7344 110.639 40.5105C110.023 40.6471 109.407 40.7838 108.791 40.9887L108.244 41.1253C107.697 41.1936 107.081 41.3986 106.534 41.5352C106.191 41.6035 105.781 41.6718 105.507 41.8085C105.165 41.9451 104.755 41.9451 104.412 42.0817C103.728 42.355 103.044 42.4916 102.291 42.7648C102.155 42.8332 101.949 42.8332 101.812 43.0381L101.402 43.1747C101.265 43.243 101.128 43.243 100.991 43.3113C100.307 43.6529 99.623 43.7212 99.0072 44.0628C97.2282 44.8142 95.6545 45.634 93.8756 46.5221C93.3282 46.7953 92.7808 47.1369 92.3019 47.5468L91.7545 47.82C90.6598 48.5032 89.6335 49.1863 88.6756 50.0743C88.4019 50.3476 88.1282 50.4842 87.9229 50.7575C87.7177 50.8941 87.5808 51.099 87.444 51.2357C87.3755 51.3723 87.2387 51.5089 87.1019 51.6456C86.7598 51.9871 86.4177 52.397 86.0755 52.8069C85.5282 53.5583 85.0492 54.3098 84.7755 55.1295C84.7071 55.3345 84.6387 55.4711 84.5703 55.676C84.5019 55.9493 84.5019 56.1542 84.5019 56.4275C84.4334 56.6324 84.365 56.8374 84.2282 56.974V57.9987C84.1597 58.5452 84.2966 59.16 84.5019 59.7065C84.5703 59.7748 84.5703 59.9114 84.5703 59.9798C84.7071 60.5263 84.9808 61.0728 85.3229 61.551C85.3229 61.551 85.3229 61.551 85.2545 61.4826C87.444 65.3765 95.5177 64.0786 99.2124 62.0975C101.881 60.6629 104.276 58.4769 106.123 56.0859C109.544 51.7139 112.144 46.9319 114.197 41.8085C114.402 41.8085 114.607 41.7401 114.813 41.7401C115.839 41.5352 116.797 41.4669 117.823 41.3303C118.439 41.262 119.123 41.262 119.739 41.1936C119.807 41.1253 119.876 41.1253 120.013 41.1253H122.544C122.749 41.1253 122.955 41.1253 123.16 41.1936C123.434 41.262 123.776 41.262 124.049 41.262H124.118C124.87 41.3303 125.555 41.5352 126.307 41.6718C126.581 41.7401 126.855 41.8085 127.06 41.9451C127.265 42.0134 127.334 42.2183 127.402 42.355C127.47 42.4916 127.539 42.6965 127.607 42.8332C127.676 42.9698 127.744 43.1064 127.813 43.1747L128.018 43.3797C128.086 43.448 128.086 43.448 128.155 43.5163C128.497 43.7895 128.839 43.8579 129.249 43.8579C129.523 43.8579 129.728 43.7212 129.865 43.5163C130.002 43.3797 130.002 43.1747 130.002 43.0381V42.8332C130.002 42.4233 129.934 42.2866 129.865 42.15ZM87.1703 60.7995C87.0334 60.6629 86.965 60.5263 86.8966 60.3213C86.965 60.5263 87.1019 60.6629 87.1703 60.7995C87.2387 60.7995 87.2387 60.7995 87.1703 60.7995ZM101.128 56.3592C99.8967 57.6571 98.4598 58.8184 97.023 59.7748C94.8335 61.1411 91.7545 62.0975 89.0861 61.551C85.665 60.8678 86.144 56.4958 87.5808 54.2415C88.0598 53.49 88.6071 52.8752 89.1545 52.1921C89.9756 51.304 90.865 50.5525 91.8229 49.8694C92.2335 49.5962 92.644 49.3229 93.0545 49.0497C93.8072 48.5715 94.4914 48.1616 95.244 47.7517C95.6545 47.4785 96.0651 47.2735 96.4756 47.0686C98.1177 46.2488 99.7598 45.4974 101.47 44.8825C102.565 44.4044 103.728 44.0628 104.891 43.6529C105.439 43.448 105.986 43.3113 106.534 43.1747C107.355 42.9015 108.176 42.7648 108.997 42.4916C109.339 42.4233 109.681 42.355 110.023 42.2867C109.544 43.448 108.997 44.6093 108.449 45.7023C106.26 49.5278 104.07 53.3534 101.128 56.3592ZM112.486 25.4133C111.46 26.8479 108.723 32.6545 107.628 31.8347C106.123 30.6734 106.807 29.3071 107.149 28.624C107.765 27.3944 108.381 26.0964 109.202 24.9351C109.339 24.7985 109.476 24.5935 109.612 24.3886C110.023 23.8421 110.502 23.3639 111.049 22.8857C111.528 22.4758 112.486 22.3392 113.239 22.4758C114.334 22.6125 113.376 23.2956 112.965 24.3203C112.897 24.7985 112.623 25.2084 112.486 25.4133Z" fill="white"/>
<path d="M118.232 31.4929C118.164 31.5612 118.164 31.6978 118.164 31.8345C118.232 31.9028 118.232 32.0394 118.301 32.1077C118.506 32.5176 118.78 32.8592 118.985 33.2007C119.19 33.6106 119.464 33.9522 119.806 34.2937L120.285 34.6353C120.696 34.8402 121.243 34.9085 121.654 34.9085C121.859 34.9085 122.133 34.9085 122.338 34.9085H122.68C122.817 34.9085 122.885 34.9085 123.022 34.9085C123.569 34.8402 124.048 34.6353 124.459 34.362C124.869 34.0888 125.211 33.7472 125.554 33.3373C125.69 33.1324 125.827 32.9275 125.964 32.7225C126.101 32.5176 126.169 32.2443 126.238 32.0394C126.375 31.5612 126.511 31.083 126.511 30.6048C126.511 30.3316 126.511 30.1266 126.58 29.8534V29.6484C126.58 29.5801 126.58 29.5118 126.58 29.4435C126.58 29.3069 126.58 29.1702 126.511 29.0336C126.443 28.7604 126.443 28.4871 126.306 28.1455C126.238 28.0089 126.238 27.9406 126.169 27.804C126.169 27.8723 126.238 27.9406 126.238 28.0089V28.0772L126.169 27.804C126.169 27.7357 126.101 27.7357 126.101 27.6674C126.101 27.599 126.033 27.599 126.033 27.5307C126.033 27.4624 125.964 27.3941 125.964 27.4624C125.964 27.4624 126.033 27.5307 126.101 27.6674C126.101 27.6674 126.101 27.6674 126.101 27.7357L126.033 27.5307C125.759 27.0525 125.417 26.711 125.211 26.4377C125.075 26.3011 125.006 26.2328 124.938 26.1645C124.869 26.0961 124.801 25.9595 124.733 25.8229C124.459 25.413 124.39 24.7982 124.459 24.1834C124.527 23.8418 124.596 23.5003 124.733 23.227C124.869 22.9537 125.075 22.6122 125.348 22.4072C125.485 22.2706 125.622 22.134 125.759 22.0657C126.375 21.5875 129.796 20.9727 127.743 19.6747C127.675 19.6064 127.606 19.6064 127.538 19.6064C127.264 19.5381 126.99 19.5381 126.717 19.5381C126.375 19.6064 125.964 19.6747 125.622 19.743C125.143 19.948 124.664 20.1529 124.254 20.4262C123.775 20.6994 123.364 20.9727 123.022 21.3142C122.269 21.9974 121.585 22.8854 121.243 23.8418C121.175 24.1151 121.106 24.32 121.038 24.5933C120.969 24.8665 120.969 25.1398 120.969 25.413C120.969 25.9595 121.106 26.506 121.243 27.0525C121.448 27.8723 122.338 28.7604 122.338 29.5801C122.338 29.6484 122.954 31.6295 121.585 32.4493C121.243 32.6542 120.833 32.7225 120.49 32.5859C120.285 32.5176 120.148 32.381 120.011 32.2443C119.875 32.1077 119.738 31.9028 119.601 31.7661C119.464 31.5612 119.327 31.4246 119.19 31.2196C119.122 31.1513 119.054 31.0147 118.985 30.9464C118.917 30.8781 118.78 30.8781 118.643 30.9464C118.438 31.083 118.301 31.288 118.232 31.4929Z" fill="white"/>
</svg>
